<svg xmlns="http://www.w3.org/2000/svg" xmlns:xlink="http://www.w3.org/1999/xlink" width="600" zoomAndPan="magnify" viewBox="0 0 450 149.999998" height="200" preserveAspectRatio="xMidYMid meet" version="1.0"><defs><g/></defs><g fill="#ffffff" fill-opacity="1"><g transform="translate(97.825717, 93.72574)"><g><path d="M 21.75 0.484375 C 18.21875 0.484375 15.050781 -0.0859375 12.25 -1.234375 C 9.457031 -2.378906 7.222656 -4.078125 5.546875 -6.328125 C 3.867188 -8.578125 2.984375 -11.285156 2.890625 -14.453125 L 15.421875 -14.453125 C 15.609375 -12.660156 16.226562 -11.296875 17.28125 -10.359375 C 18.332031 -9.421875 19.707031 -8.953125 21.40625 -8.953125 C 23.15625 -8.953125 24.535156 -9.351562 25.546875 -10.15625 C 26.554688 -10.957031 27.0625 -12.070312 27.0625 -13.5 C 27.0625 -14.6875 26.65625 -15.671875 25.84375 -16.453125 C 25.039062 -17.234375 24.054688 -17.875 22.890625 -18.375 C 21.722656 -18.882812 20.0625 -19.460938 17.90625 -20.109375 C 14.78125 -21.066406 12.226562 -22.023438 10.25 -22.984375 C 8.28125 -23.953125 6.582031 -25.375 5.15625 -27.25 C 3.738281 -29.132812 3.03125 -31.59375 3.03125 -34.625 C 3.03125 -39.125 4.660156 -42.644531 7.921875 -45.1875 C 11.179688 -47.738281 15.425781 -49.015625 20.65625 -49.015625 C 25.976562 -49.015625 30.269531 -47.738281 33.53125 -45.1875 C 36.789062 -42.644531 38.535156 -39.101562 38.765625 -34.5625 L 26.015625 -34.5625 C 25.929688 -36.125 25.359375 -37.347656 24.296875 -38.234375 C 23.242188 -39.128906 21.890625 -39.578125 20.234375 -39.578125 C 18.816406 -39.578125 17.671875 -39.195312 16.796875 -38.4375 C 15.921875 -37.6875 15.484375 -36.597656 15.484375 -35.171875 C 15.484375 -33.617188 16.21875 -32.40625 17.6875 -31.53125 C 19.15625 -30.65625 21.453125 -29.710938 24.578125 -28.703125 C 27.703125 -27.648438 30.238281 -26.640625 32.1875 -25.671875 C 34.132812 -24.710938 35.816406 -23.3125 37.234375 -21.46875 C 38.660156 -19.632812 39.375 -17.273438 39.375 -14.390625 C 39.375 -11.628906 38.671875 -9.125 37.265625 -6.875 C 35.867188 -4.632812 33.835938 -2.847656 31.171875 -1.515625 C 28.515625 -0.179688 25.375 0.484375 21.75 0.484375 Z M 21.75 0.484375 "/></g></g></g><g fill="#ffffff" fill-opacity="1"><g transform="translate(140.167023, 93.72574)"><g><path d="M 16.046875 -48.328125 L 16.046875 0 L 4.265625 0 L 4.265625 -48.328125 Z M 16.046875 -48.328125 "/></g></g></g><g fill="#ffffff" fill-opacity="1"><g transform="translate(160.47708, 93.72574)"><g><path d="M 21.75 0.484375 C 18.21875 0.484375 15.050781 -0.0859375 12.25 -1.234375 C 9.457031 -2.378906 7.222656 -4.078125 5.546875 -6.328125 C 3.867188 -8.578125 2.984375 -11.285156 2.890625 -14.453125 L 15.421875 -14.453125 C 15.609375 -12.660156 16.226562 -11.296875 17.28125 -10.359375 C 18.332031 -9.421875 19.707031 -8.953125 21.40625 -8.953125 C 23.15625 -8.953125 24.535156 -9.351562 25.546875 -10.15625 C 26.554688 -10.957031 27.0625 -12.070312 27.0625 -13.5 C 27.0625 -14.6875 26.65625 -15.671875 25.84375 -16.453125 C 25.039062 -17.234375 24.054688 -17.875 22.890625 -18.375 C 21.722656 -18.882812 20.0625 -19.460938 17.90625 -20.109375 C 14.78125 -21.066406 12.226562 -22.023438 10.25 -22.984375 C 8.28125 -23.953125 6.582031 -25.375 5.15625 -27.25 C 3.738281 -29.132812 3.03125 -31.59375 3.03125 -34.625 C 3.03125 -39.125 4.660156 -42.644531 7.921875 -45.1875 C 11.179688 -47.738281 15.425781 -49.015625 20.65625 -49.015625 C 25.976562 -49.015625 30.269531 -47.738281 33.53125 -45.1875 C 36.789062 -42.644531 38.535156 -39.101562 38.765625 -34.5625 L 26.015625 -34.5625 C 25.929688 -36.125 25.359375 -37.347656 24.296875 -38.234375 C 23.242188 -39.128906 21.890625 -39.578125 20.234375 -39.578125 C 18.816406 -39.578125 17.671875 -39.195312 16.796875 -38.4375 C 15.921875 -37.6875 15.484375 -36.597656 15.484375 -35.171875 C 15.484375 -33.617188 16.21875 -32.40625 17.6875 -31.53125 C 19.15625 -30.65625 21.453125 -29.710938 24.578125 -28.703125 C 27.703125 -27.648438 30.238281 -26.640625 32.1875 -25.671875 C 34.132812 -24.710938 35.816406 -23.3125 37.234375 -21.46875 C 38.660156 -19.632812 39.375 -17.273438 39.375 -14.390625 C 39.375 -11.628906 38.671875 -9.125 37.265625 -6.875 C 35.867188 -4.632812 33.835938 -2.847656 31.171875 -1.515625 C 28.515625 -0.179688 25.375 0.484375 21.75 0.484375 Z M 21.75 0.484375 "/></g></g></g><g fill="#ffffff" fill-opacity="1"><g transform="translate(202.818386, 93.72574)"><g><path d="M 34.359375 -8.53125 L 16.3125 -8.53125 L 13.421875 0 L 1.09375 0 L 18.59375 -48.328125 L 32.21875 -48.328125 L 49.703125 0 L 37.25 0 Z M 31.328125 -17.625 L 25.328125 -35.3125 L 19.40625 -17.625 Z M 31.328125 -17.625 "/></g></g></g><g fill="#ffffff" fill-opacity="1"><g transform="translate(253.559106, 93.72574)"><g><path d="M 15.828125 -48.328125 L 15.828125 -19.40625 C 15.828125 -16.519531 16.539062 -14.296875 17.96875 -12.734375 C 19.394531 -11.171875 21.484375 -10.390625 24.234375 -10.390625 C 26.984375 -10.390625 29.09375 -11.171875 30.5625 -12.734375 C 32.03125 -14.296875 32.765625 -16.519531 32.765625 -19.40625 L 32.765625 -48.328125 L 44.546875 -48.328125 L 44.546875 -19.484375 C 44.546875 -15.171875 43.625 -11.519531 41.78125 -8.53125 C 39.945312 -5.550781 37.476562 -3.300781 34.375 -1.78125 C 31.28125 -0.269531 27.832031 0.484375 24.03125 0.484375 C 20.21875 0.484375 16.804688 -0.257812 13.796875 -1.75 C 10.796875 -3.25 8.421875 -5.5 6.671875 -8.5 C 4.929688 -11.507812 4.0625 -15.171875 4.0625 -19.484375 L 4.0625 -48.328125 Z M 15.828125 -48.328125 "/></g></g></g><g fill="#ffffff" fill-opacity="1"><g transform="translate(302.096701, 93.72574)"><g><path d="M 22.375 -48.328125 C 27.46875 -48.328125 31.914062 -47.316406 35.71875 -45.296875 C 39.53125 -43.273438 42.476562 -40.441406 44.5625 -36.796875 C 46.65625 -33.148438 47.703125 -28.941406 47.703125 -24.171875 C 47.703125 -19.441406 46.65625 -15.238281 44.5625 -11.5625 C 42.476562 -7.894531 39.519531 -5.050781 35.6875 -3.03125 C 31.863281 -1.007812 27.425781 0 22.375 0 L 4.265625 0 L 4.265625 -48.328125 Z M 21.609375 -10.1875 C 26.066406 -10.1875 29.535156 -11.398438 32.015625 -13.828125 C 34.492188 -16.265625 35.734375 -19.710938 35.734375 -24.171875 C 35.734375 -28.617188 34.492188 -32.082031 32.015625 -34.5625 C 29.535156 -37.039062 26.066406 -38.28125 21.609375 -38.28125 L 16.046875 -38.28125 L 16.046875 -10.1875 Z M 21.609375 -10.1875 "/></g></g></g></svg>