<svg xmlns="http://www.w3.org/2000/svg" xmlns:xlink="http://www.w3.org/1999/xlink" width="600" zoomAndPan="magnify" viewBox="0 0 450 149.999998" height="200" preserveAspectRatio="xMidYMid meet" version="1.0"><defs><g/><clipPath id="9f3cb50bb6"><path d="M 15 17.738281 L 113 17.738281 L 113 127.238281 L 15 127.238281 Z M 15 17.738281 " clip-rule="nonzero"/></clipPath><clipPath id="22eb871050"><path d="M 66.128906 59.050781 C 62.707031 59.050781 59.578125 60.351562 57.214844 62.476562 L 47.292969 54.238281 C 47.972656 52.957031 48.335938 51.511719 48.335938 49.972656 C 48.335938 44.882812 44.21875 40.765625 39.148438 40.765625 C 34.078125 40.765625 29.960938 44.882812 29.960938 49.972656 C 29.960938 55.042969 34.078125 59.160156 39.148438 59.160156 C 41.289062 59.160156 43.265625 58.429688 44.824219 57.203125 L 54.742188 65.441406 C 53.5 67.472656 52.785156 69.851562 52.785156 72.394531 C 52.785156 74.171875 53.132812 75.875 53.773438 77.410156 L 30.964844 90.828125 C 29.28125 88.996094 26.867188 87.84375 24.195312 87.84375 C 19.125 87.84375 15.003906 91.964844 15.003906 97.050781 C 15.003906 102.121094 19.125 106.242188 24.195312 106.242188 C 29.28125 106.242188 33.382812 102.121094 33.382812 97.050781 C 33.382812 96.046875 33.21875 95.058594 32.925781 94.160156 L 55.730469 80.742188 C 58.167969 83.78125 61.917969 85.722656 66.128906 85.722656 C 69.019531 85.722656 71.695312 84.804688 73.871094 83.25 L 87.65625 97.582031 C 86.996094 98.664062 86.628906 99.925781 86.628906 101.28125 C 86.628906 105.308594 89.886719 108.566406 93.898438 108.566406 C 97.925781 108.566406 101.183594 105.308594 101.183594 101.28125 C 101.183594 97.273438 97.925781 94.011719 93.898438 94.011719 C 92.652344 94.011719 91.460938 94.34375 90.4375 94.890625 L 76.65625 80.558594 C 78.410156 78.308594 79.453125 75.472656 79.453125 72.394531 C 79.453125 69.523438 78.558594 66.867188 77.003906 64.691406 L 97.722656 44.9375 C 99.207031 45.945312 100.980469 46.53125 102.902344 46.53125 C 107.972656 46.53125 112.089844 42.414062 112.089844 37.34375 C 112.089844 32.253906 107.972656 28.152344 102.902344 28.152344 C 97.8125 28.152344 93.695312 32.253906 93.695312 37.34375 C 93.695312 39.101562 94.191406 40.746094 95.050781 42.136719 L 74.328125 61.890625 C 72.078125 60.113281 69.222656 59.050781 66.128906 59.050781 Z M 66.164062 22.386719 L 24.195312 37.34375 C 23.40625 59.507812 25.601562 75.214844 31.589844 87.699219 L 31.257812 87.898438 C 29.628906 86.617188 27.671875 85.8125 25.585938 85.558594 C 20.496094 72.761719 18.738281 57 19.617188 35.605469 L 19.691406 34.03125 L 21.171875 33.5 L 65.398438 17.738281 L 66.953125 17.738281 L 95.964844 28.082031 C 94.628906 29.085938 93.511719 30.367188 92.707031 31.851562 Z M 35.871094 95.183594 C 42.625 105.179688 52.546875 113.34375 66.164062 121.855469 C 74.035156 116.949219 80.664062 112.152344 86.171875 107.046875 C 87.105469 108.308594 88.351562 109.335938 89.796875 110.011719 C 83.683594 115.757812 76.269531 121.085938 67.390625 126.558594 L 66.164062 127.308594 L 64.957031 126.558594 C 51.90625 118.523438 42.023438 110.78125 34.828125 101.609375 C 35.433594 100.21875 35.761719 98.664062 35.761719 97.050781 C 35.761719 96.464844 35.726562 95.878906 35.632812 95.3125 Z M 98.105469 92.605469 C 98.730469 91.597656 99.296875 90.570312 99.847656 89.527344 C 105.503906 78.710938 108.121094 65.476562 108.300781 47.574219 C 110.226562 46.550781 111.835938 44.996094 112.933594 43.109375 C 113.171875 64.066406 110.445312 79.261719 103.964844 91.671875 C 103.25 93.023438 102.5 94.34375 101.714844 95.625 C 100.78125 94.34375 99.554688 93.300781 98.105469 92.605469 Z M 67.320312 95.972656 C 67.320312 92.328125 64.355469 89.363281 60.710938 89.363281 C 57.070312 89.363281 54.101562 92.328125 54.101562 95.972656 C 54.101562 99.613281 57.070312 102.578125 60.710938 102.578125 C 64.355469 102.578125 67.320312 99.613281 67.320312 95.972656 Z M 36.730469 65.988281 C 34.003906 65.988281 31.789062 68.203125 31.789062 70.929688 C 31.789062 73.660156 34.003906 75.875 36.730469 75.875 C 39.460938 75.875 41.675781 73.660156 41.675781 70.929688 C 41.675781 68.203125 39.460938 65.988281 36.730469 65.988281 Z M 67.628906 40.070312 C 64.902344 40.070312 62.6875 42.285156 62.6875 45.011719 C 62.6875 47.738281 64.902344 49.953125 67.628906 49.953125 C 70.375 49.953125 72.589844 47.738281 72.589844 45.011719 C 72.589844 42.285156 70.375 40.070312 67.628906 40.070312 Z M 96.421875 64.324219 C 93.3125 64.324219 90.785156 66.851562 90.785156 69.960938 C 90.785156 73.089844 93.3125 75.617188 96.421875 75.617188 C 99.554688 75.617188 102.078125 73.089844 102.078125 69.960938 C 102.078125 66.851562 99.554688 64.324219 96.421875 64.324219 Z M 96.421875 64.324219 " clip-rule="evenodd"/></clipPath><linearGradient x1="-176.769113" gradientTransform="matrix(0.0183044, 0, 0, 0.0183044, 15.005019, 17.738863)" y1="5802.710646" x2="5535.794981" gradientUnits="userSpaceOnUse" y2="175.413631" id="1f72cac52b"><stop stop-opacity="1" stop-color="rgb(100%, 100%, 100%)" offset="0"/><stop stop-opacity="1" stop-color="rgb(100%, 100%, 100%)" offset="0.0625"/><stop stop-opacity="1" stop-color="rgb(100%, 100%, 100%)" offset="0.078125"/><stop stop-opacity="1" stop-color="rgb(100%, 100%, 100%)" offset="0.0859375"/><stop stop-opacity="1" stop-color="rgb(99.765015%, 99.816895%, 100%)" offset="0.0898437"/><stop stop-opacity="1" stop-color="rgb(99.531555%, 99.633789%, 100%)" offset="0.09375"/><stop stop-opacity="1" stop-color="rgb(99.095154%, 99.293518%, 100%)" offset="0.0976562"/><stop stop-opacity="1" stop-color="rgb(98.660278%, 98.953247%, 100%)" offset="0.101562"/><stop stop-opacity="1" stop-color="rgb(98.223877%, 98.612976%, 100%)" offset="0.105469"/><stop stop-opacity="1" stop-color="rgb(97.789001%, 98.272705%, 100%)" offset="0.109375"/><stop stop-opacity="1" stop-color="rgb(97.3526%, 97.932434%, 100%)" offset="0.113281"/><stop stop-opacity="1" stop-color="rgb(96.917725%, 97.592163%, 100%)" offset="0.117187"/><stop stop-opacity="1" stop-color="rgb(96.481323%, 97.251892%, 100%)" offset="0.121094"/><stop stop-opacity="1" stop-color="rgb(96.046448%, 96.911621%, 100%)" offset="0.125"/><stop stop-opacity="1" stop-color="rgb(95.610046%, 96.57135%, 100%)" offset="0.128906"/><stop stop-opacity="1" stop-color="rgb(95.175171%, 96.231079%, 100%)" offset="0.132812"/><stop stop-opacity="1" stop-color="rgb(94.73877%, 95.889282%, 100%)" offset="0.136719"/><stop stop-opacity="1" stop-color="rgb(94.303894%, 95.549011%, 100%)" offset="0.140625"/><stop stop-opacity="1" stop-color="rgb(93.867493%, 95.20874%, 100%)" offset="0.144531"/><stop stop-opacity="1" stop-color="rgb(93.432617%, 94.868469%, 100%)" offset="0.148437"/><stop stop-opacity="1" stop-color="rgb(92.996216%, 94.528198%, 100%)" offset="0.152344"/><stop stop-opacity="1" stop-color="rgb(92.559814%, 94.187927%, 100%)" offset="0.15625"/><stop stop-opacity="1" stop-color="rgb(92.123413%, 93.847656%, 100%)" offset="0.160156"/><stop stop-opacity="1" stop-color="rgb(91.688538%, 93.507385%, 100%)" offset="0.164062"/><stop stop-opacity="1" stop-color="rgb(91.252136%, 93.167114%, 100%)" offset="0.167969"/><stop stop-opacity="1" stop-color="rgb(90.817261%, 92.826843%, 100%)" offset="0.171875"/><stop stop-opacity="1" stop-color="rgb(90.380859%, 92.486572%, 100%)" offset="0.175781"/><stop stop-opacity="1" stop-color="rgb(89.945984%, 92.146301%, 100%)" offset="0.179687"/><stop stop-opacity="1" stop-color="rgb(89.509583%, 91.80603%, 100%)" offset="0.183594"/><stop stop-opacity="1" stop-color="rgb(89.074707%, 91.465759%, 100%)" offset="0.1875"/><stop stop-opacity="1" stop-color="rgb(88.638306%, 91.123962%, 100%)" offset="0.191406"/><stop stop-opacity="1" stop-color="rgb(88.20343%, 90.783691%, 100%)" offset="0.195312"/><stop stop-opacity="1" stop-color="rgb(87.767029%, 90.44342%, 100%)" offset="0.199219"/><stop stop-opacity="1" stop-color="rgb(87.332153%, 90.103149%, 100%)" offset="0.203125"/><stop stop-opacity="1" stop-color="rgb(86.895752%, 89.762878%, 100%)" offset="0.207031"/><stop stop-opacity="1" stop-color="rgb(86.460876%, 89.422607%, 100%)" offset="0.210938"/><stop stop-opacity="1" stop-color="rgb(86.024475%, 89.082336%, 100%)" offset="0.214844"/><stop stop-opacity="1" stop-color="rgb(85.5896%, 88.742065%, 100%)" offset="0.21875"/><stop stop-opacity="1" stop-color="rgb(85.153198%, 88.401794%, 100%)" offset="0.222656"/><stop stop-opacity="1" stop-color="rgb(84.716797%, 88.061523%, 100%)" offset="0.226562"/><stop stop-opacity="1" stop-color="rgb(84.280396%, 87.721252%, 100%)" offset="0.230469"/><stop stop-opacity="1" stop-color="rgb(83.84552%, 87.380981%, 100%)" offset="0.234375"/><stop stop-opacity="1" stop-color="rgb(83.409119%, 87.04071%, 100%)" offset="0.238281"/><stop stop-opacity="1" stop-color="rgb(82.974243%, 86.700439%, 100%)" offset="0.242187"/><stop stop-opacity="1" stop-color="rgb(82.537842%, 86.358643%, 100%)" offset="0.246094"/><stop stop-opacity="1" stop-color="rgb(82.102966%, 86.018372%, 100%)" offset="0.25"/><stop stop-opacity="1" stop-color="rgb(81.666565%, 85.678101%, 100%)" offset="0.253906"/><stop stop-opacity="1" stop-color="rgb(81.231689%, 85.33783%, 100%)" offset="0.257812"/><stop stop-opacity="1" stop-color="rgb(80.795288%, 84.997559%, 100%)" offset="0.261719"/><stop stop-opacity="1" stop-color="rgb(80.360413%, 84.657288%, 100%)" offset="0.265625"/><stop stop-opacity="1" stop-color="rgb(79.924011%, 84.317017%, 100%)" offset="0.269531"/><stop stop-opacity="1" stop-color="rgb(79.489136%, 83.976746%, 100%)" offset="0.273437"/><stop stop-opacity="1" stop-color="rgb(79.052734%, 83.636475%, 100%)" offset="0.277344"/><stop stop-opacity="1" stop-color="rgb(78.617859%, 83.296204%, 100%)" offset="0.28125"/><stop stop-opacity="1" stop-color="rgb(78.181458%, 82.955933%, 100%)" offset="0.285156"/><stop stop-opacity="1" stop-color="rgb(77.746582%, 82.615662%, 100%)" offset="0.289062"/><stop stop-opacity="1" stop-color="rgb(77.310181%, 82.275391%, 100%)" offset="0.292969"/><stop stop-opacity="1" stop-color="rgb(76.873779%, 81.93512%, 100%)" offset="0.296875"/><stop stop-opacity="1" stop-color="rgb(76.437378%, 81.594849%, 100%)" offset="0.300781"/><stop stop-opacity="1" stop-color="rgb(76.002502%, 81.254578%, 100%)" offset="0.304688"/><stop stop-opacity="1" stop-color="rgb(75.566101%, 80.912781%, 100%)" offset="0.308594"/><stop stop-opacity="1" stop-color="rgb(75.131226%, 80.57251%, 100%)" offset="0.3125"/><stop stop-opacity="1" stop-color="rgb(74.694824%, 80.232239%, 100%)" offset="0.316406"/><stop stop-opacity="1" stop-color="rgb(74.259949%, 79.891968%, 100%)" offset="0.320312"/><stop stop-opacity="1" stop-color="rgb(73.823547%, 79.551697%, 100%)" offset="0.324219"/><stop stop-opacity="1" stop-color="rgb(73.388672%, 79.211426%, 100%)" offset="0.328125"/><stop stop-opacity="1" stop-color="rgb(72.952271%, 78.871155%, 100%)" offset="0.332031"/><stop stop-opacity="1" stop-color="rgb(72.517395%, 78.530884%, 100%)" offset="0.335938"/><stop stop-opacity="1" stop-color="rgb(72.080994%, 78.190613%, 100%)" offset="0.339844"/><stop stop-opacity="1" stop-color="rgb(71.646118%, 77.850342%, 100%)" offset="0.34375"/><stop stop-opacity="1" stop-color="rgb(71.209717%, 77.510071%, 100%)" offset="0.347656"/><stop stop-opacity="1" stop-color="rgb(70.774841%, 77.1698%, 100%)" offset="0.351563"/><stop stop-opacity="1" stop-color="rgb(70.33844%, 76.829529%, 100%)" offset="0.355469"/><stop stop-opacity="1" stop-color="rgb(69.903564%, 76.489258%, 100%)" offset="0.359375"/><stop stop-opacity="1" stop-color="rgb(69.467163%, 76.147461%, 100%)" offset="0.363281"/><stop stop-opacity="1" stop-color="rgb(69.030762%, 75.80719%, 100%)" offset="0.367188"/><stop stop-opacity="1" stop-color="rgb(68.59436%, 75.466919%, 100%)" offset="0.371094"/><stop stop-opacity="1" stop-color="rgb(68.159485%, 75.126648%, 100%)" offset="0.375"/><stop stop-opacity="1" stop-color="rgb(67.723083%, 74.786377%, 100%)" offset="0.378906"/><stop stop-opacity="1" stop-color="rgb(67.288208%, 74.446106%, 100%)" offset="0.382812"/><stop stop-opacity="1" stop-color="rgb(66.851807%, 74.105835%, 100%)" offset="0.386719"/><stop stop-opacity="1" stop-color="rgb(66.416931%, 73.765564%, 100%)" offset="0.390625"/><stop stop-opacity="1" stop-color="rgb(65.98053%, 73.425293%, 100%)" offset="0.394531"/><stop stop-opacity="1" stop-color="rgb(65.545654%, 73.085022%, 100%)" offset="0.398437"/><stop stop-opacity="1" stop-color="rgb(65.109253%, 72.744751%, 100%)" offset="0.402344"/><stop stop-opacity="1" stop-color="rgb(64.674377%, 72.40448%, 100%)" offset="0.40625"/><stop stop-opacity="1" stop-color="rgb(64.237976%, 72.064209%, 100%)" offset="0.410156"/><stop stop-opacity="1" stop-color="rgb(63.803101%, 71.723938%, 100%)" offset="0.414062"/><stop stop-opacity="1" stop-color="rgb(63.366699%, 71.382141%, 100%)" offset="0.417969"/><stop stop-opacity="1" stop-color="rgb(62.931824%, 71.04187%, 100%)" offset="0.421875"/><stop stop-opacity="1" stop-color="rgb(62.495422%, 70.701599%, 100%)" offset="0.425781"/><stop stop-opacity="1" stop-color="rgb(62.060547%, 70.361328%, 100%)" offset="0.429688"/><stop stop-opacity="1" stop-color="rgb(61.624146%, 70.021057%, 100%)" offset="0.433594"/><stop stop-opacity="1" stop-color="rgb(61.187744%, 69.680786%, 100%)" offset="0.4375"/><stop stop-opacity="1" stop-color="rgb(60.751343%, 69.340515%, 100%)" offset="0.441406"/><stop stop-opacity="1" stop-color="rgb(60.316467%, 69.000244%, 100%)" offset="0.445312"/><stop stop-opacity="1" stop-color="rgb(59.880066%, 68.659973%, 100%)" offset="0.449219"/><stop stop-opacity="1" stop-color="rgb(59.44519%, 68.319702%, 100%)" offset="0.453125"/><stop stop-opacity="1" stop-color="rgb(59.008789%, 67.979431%, 100%)" offset="0.457031"/><stop stop-opacity="1" stop-color="rgb(58.573914%, 67.63916%, 100%)" offset="0.460938"/><stop stop-opacity="1" stop-color="rgb(58.137512%, 67.298889%, 100%)" offset="0.464844"/><stop stop-opacity="1" stop-color="rgb(57.702637%, 66.958618%, 100%)" offset="0.46875"/><stop stop-opacity="1" stop-color="rgb(57.266235%, 66.616821%, 100%)" offset="0.472656"/><stop stop-opacity="1" stop-color="rgb(56.83136%, 66.27655%, 100%)" offset="0.476563"/><stop stop-opacity="1" stop-color="rgb(56.394958%, 65.936279%, 100%)" offset="0.480469"/><stop stop-opacity="1" stop-color="rgb(55.960083%, 65.596008%, 100%)" offset="0.484375"/><stop stop-opacity="1" stop-color="rgb(55.523682%, 65.255737%, 100%)" offset="0.488281"/><stop stop-opacity="1" stop-color="rgb(55.088806%, 64.915466%, 100%)" offset="0.492188"/><stop stop-opacity="1" stop-color="rgb(54.652405%, 64.575195%, 100%)" offset="0.496094"/><stop stop-opacity="1" stop-color="rgb(54.217529%, 64.234924%, 100%)" offset="0.5"/><stop stop-opacity="1" stop-color="rgb(53.781128%, 63.894653%, 100%)" offset="0.503906"/><stop stop-opacity="1" stop-color="rgb(53.344727%, 63.554382%, 100%)" offset="0.507812"/><stop stop-opacity="1" stop-color="rgb(52.908325%, 63.214111%, 100%)" offset="0.511719"/><stop stop-opacity="1" stop-color="rgb(52.47345%, 62.87384%, 100%)" offset="0.515625"/><stop stop-opacity="1" stop-color="rgb(52.037048%, 62.533569%, 100%)" offset="0.519531"/><stop stop-opacity="1" stop-color="rgb(51.602173%, 62.193298%, 100%)" offset="0.523438"/><stop stop-opacity="1" stop-color="rgb(51.165771%, 61.851501%, 100%)" offset="0.527344"/><stop stop-opacity="1" stop-color="rgb(50.730896%, 61.51123%, 100%)" offset="0.53125"/><stop stop-opacity="1" stop-color="rgb(50.294495%, 61.170959%, 100%)" offset="0.535156"/><stop stop-opacity="1" stop-color="rgb(49.859619%, 60.830688%, 100%)" offset="0.539062"/><stop stop-opacity="1" stop-color="rgb(49.423218%, 60.490417%, 100%)" offset="0.542969"/><stop stop-opacity="1" stop-color="rgb(48.988342%, 60.150146%, 100%)" offset="0.546875"/><stop stop-opacity="1" stop-color="rgb(48.551941%, 59.809875%, 100%)" offset="0.550781"/><stop stop-opacity="1" stop-color="rgb(48.117065%, 59.469604%, 100%)" offset="0.554687"/><stop stop-opacity="1" stop-color="rgb(47.680664%, 59.129333%, 100%)" offset="0.558594"/><stop stop-opacity="1" stop-color="rgb(47.245789%, 58.789062%, 100%)" offset="0.5625"/><stop stop-opacity="1" stop-color="rgb(46.809387%, 58.448792%, 100%)" offset="0.566406"/><stop stop-opacity="1" stop-color="rgb(46.374512%, 58.108521%, 100%)" offset="0.570312"/><stop stop-opacity="1" stop-color="rgb(45.93811%, 57.76825%, 100%)" offset="0.574219"/><stop stop-opacity="1" stop-color="rgb(45.501709%, 57.427979%, 100%)" offset="0.578125"/><stop stop-opacity="1" stop-color="rgb(45.065308%, 57.086182%, 100%)" offset="0.582031"/><stop stop-opacity="1" stop-color="rgb(44.630432%, 56.745911%, 100%)" offset="0.585938"/><stop stop-opacity="1" stop-color="rgb(44.194031%, 56.40564%, 100%)" offset="0.589844"/><stop stop-opacity="1" stop-color="rgb(43.759155%, 56.065369%, 100%)" offset="0.59375"/><stop stop-opacity="1" stop-color="rgb(43.322754%, 55.725098%, 100%)" offset="0.597656"/><stop stop-opacity="1" stop-color="rgb(42.887878%, 55.384827%, 100%)" offset="0.601562"/><stop stop-opacity="1" stop-color="rgb(42.451477%, 55.044556%, 100%)" offset="0.605469"/><stop stop-opacity="1" stop-color="rgb(42.016602%, 54.704285%, 100%)" offset="0.609375"/><stop stop-opacity="1" stop-color="rgb(41.5802%, 54.364014%, 100%)" offset="0.613281"/><stop stop-opacity="1" stop-color="rgb(41.145325%, 54.023743%, 100%)" offset="0.617188"/><stop stop-opacity="1" stop-color="rgb(40.708923%, 53.683472%, 100%)" offset="0.621094"/><stop stop-opacity="1" stop-color="rgb(40.274048%, 53.343201%, 100%)" offset="0.625"/><stop stop-opacity="1" stop-color="rgb(39.837646%, 53.00293%, 100%)" offset="0.628906"/><stop stop-opacity="1" stop-color="rgb(39.402771%, 52.662659%, 100%)" offset="0.632812"/><stop stop-opacity="1" stop-color="rgb(38.96637%, 52.320862%, 100%)" offset="0.636719"/><stop stop-opacity="1" stop-color="rgb(38.531494%, 51.980591%, 100%)" offset="0.640625"/><stop stop-opacity="1" stop-color="rgb(38.095093%, 51.64032%, 100%)" offset="0.644531"/><stop stop-opacity="1" stop-color="rgb(37.658691%, 51.300049%, 100%)" offset="0.648438"/><stop stop-opacity="1" stop-color="rgb(37.22229%, 50.959778%, 100%)" offset="0.652344"/><stop stop-opacity="1" stop-color="rgb(36.787415%, 50.619507%, 100%)" offset="0.65625"/><stop stop-opacity="1" stop-color="rgb(36.351013%, 50.279236%, 100%)" offset="0.660156"/><stop stop-opacity="1" stop-color="rgb(35.916138%, 49.938965%, 100%)" offset="0.664062"/><stop stop-opacity="1" stop-color="rgb(35.479736%, 49.598694%, 100%)" offset="0.667969"/><stop stop-opacity="1" stop-color="rgb(35.044861%, 49.258423%, 100%)" offset="0.671875"/><stop stop-opacity="1" stop-color="rgb(34.608459%, 48.918152%, 100%)" offset="0.675781"/><stop stop-opacity="1" stop-color="rgb(34.173584%, 48.577881%, 100%)" offset="0.679688"/><stop stop-opacity="1" stop-color="rgb(33.737183%, 48.23761%, 100%)" offset="0.683594"/><stop stop-opacity="1" stop-color="rgb(33.302307%, 47.897339%, 100%)" offset="0.6875"/><stop stop-opacity="1" stop-color="rgb(32.865906%, 47.555542%, 100%)" offset="0.691406"/><stop stop-opacity="1" stop-color="rgb(32.43103%, 47.215271%, 100%)" offset="0.695313"/><stop stop-opacity="1" stop-color="rgb(31.994629%, 46.875%, 100%)" offset="0.699219"/><stop stop-opacity="1" stop-color="rgb(31.559753%, 46.534729%, 100%)" offset="0.703125"/><stop stop-opacity="1" stop-color="rgb(31.123352%, 46.194458%, 100%)" offset="0.707031"/><stop stop-opacity="1" stop-color="rgb(30.688477%, 45.854187%, 100%)" offset="0.710938"/><stop stop-opacity="1" stop-color="rgb(30.252075%, 45.513916%, 100%)" offset="0.714844"/><stop stop-opacity="1" stop-color="rgb(29.815674%, 45.173645%, 100%)" offset="0.71875"/><stop stop-opacity="1" stop-color="rgb(29.379272%, 44.833374%, 100%)" offset="0.722656"/><stop stop-opacity="1" stop-color="rgb(28.944397%, 44.493103%, 100%)" offset="0.726562"/><stop stop-opacity="1" stop-color="rgb(28.507996%, 44.152832%, 100%)" offset="0.730469"/><stop stop-opacity="1" stop-color="rgb(28.07312%, 43.812561%, 100%)" offset="0.734375"/><stop stop-opacity="1" stop-color="rgb(27.636719%, 43.47229%, 100%)" offset="0.738281"/><stop stop-opacity="1" stop-color="rgb(27.201843%, 43.132019%, 100%)" offset="0.742188"/><stop stop-opacity="1" stop-color="rgb(26.765442%, 42.790222%, 100%)" offset="0.746094"/><stop stop-opacity="1" stop-color="rgb(26.330566%, 42.449951%, 100%)" offset="0.75"/><stop stop-opacity="1" stop-color="rgb(25.894165%, 42.10968%, 100%)" offset="0.753906"/><stop stop-opacity="1" stop-color="rgb(25.45929%, 41.769409%, 100%)" offset="0.757812"/><stop stop-opacity="1" stop-color="rgb(25.022888%, 41.429138%, 100%)" offset="0.761719"/><stop stop-opacity="1" stop-color="rgb(24.588013%, 41.088867%, 100%)" offset="0.765625"/><stop stop-opacity="1" stop-color="rgb(24.151611%, 40.748596%, 100%)" offset="0.769531"/><stop stop-opacity="1" stop-color="rgb(23.716736%, 40.408325%, 100%)" offset="0.773438"/><stop stop-opacity="1" stop-color="rgb(23.280334%, 40.068054%, 100%)" offset="0.777344"/><stop stop-opacity="1" stop-color="rgb(22.845459%, 39.727783%, 100%)" offset="0.78125"/><stop stop-opacity="1" stop-color="rgb(22.409058%, 39.387512%, 100%)" offset="0.785156"/><stop stop-opacity="1" stop-color="rgb(21.972656%, 39.047241%, 100%)" offset="0.789062"/><stop stop-opacity="1" stop-color="rgb(21.536255%, 38.70697%, 100%)" offset="0.792969"/><stop stop-opacity="1" stop-color="rgb(21.101379%, 38.366699%, 100%)" offset="0.796875"/><stop stop-opacity="1" stop-color="rgb(20.664978%, 38.024902%, 100%)" offset="0.800781"/><stop stop-opacity="1" stop-color="rgb(20.230103%, 37.684631%, 100%)" offset="0.804687"/><stop stop-opacity="1" stop-color="rgb(19.793701%, 37.34436%, 100%)" offset="0.808594"/><stop stop-opacity="1" stop-color="rgb(19.358826%, 37.004089%, 100%)" offset="0.8125"/><stop stop-opacity="1" stop-color="rgb(18.922424%, 36.663818%, 100%)" offset="0.816406"/><stop stop-opacity="1" stop-color="rgb(18.487549%, 36.323547%, 100%)" offset="0.820312"/><stop stop-opacity="1" stop-color="rgb(18.051147%, 35.983276%, 100%)" offset="0.824219"/><stop stop-opacity="1" stop-color="rgb(17.616272%, 35.643005%, 100%)" offset="0.828125"/><stop stop-opacity="1" stop-color="rgb(17.179871%, 35.302734%, 100%)" offset="0.832031"/><stop stop-opacity="1" stop-color="rgb(16.744995%, 34.962463%, 100%)" offset="0.835938"/><stop stop-opacity="1" stop-color="rgb(16.308594%, 34.622192%, 100%)" offset="0.839844"/><stop stop-opacity="1" stop-color="rgb(15.873718%, 34.281921%, 100%)" offset="0.84375"/><stop stop-opacity="1" stop-color="rgb(15.437317%, 33.94165%, 100%)" offset="0.847656"/><stop stop-opacity="1" stop-color="rgb(15.002441%, 33.601379%, 100%)" offset="0.851562"/><stop stop-opacity="1" stop-color="rgb(14.56604%, 33.259583%, 100%)" offset="0.855469"/><stop stop-opacity="1" stop-color="rgb(14.129639%, 32.919312%, 100%)" offset="0.859375"/><stop stop-opacity="1" stop-color="rgb(13.693237%, 32.579041%, 100%)" offset="0.863281"/><stop stop-opacity="1" stop-color="rgb(13.258362%, 32.23877%, 100%)" offset="0.867188"/><stop stop-opacity="1" stop-color="rgb(12.82196%, 31.898499%, 100%)" offset="0.871094"/><stop stop-opacity="1" stop-color="rgb(12.387085%, 31.558228%, 100%)" offset="0.875"/><stop stop-opacity="1" stop-color="rgb(11.950684%, 31.217957%, 100%)" offset="0.878906"/><stop stop-opacity="1" stop-color="rgb(11.515808%, 30.877686%, 100%)" offset="0.882812"/><stop stop-opacity="1" stop-color="rgb(11.079407%, 30.537415%, 100%)" offset="0.886719"/><stop stop-opacity="1" stop-color="rgb(10.644531%, 30.197144%, 100%)" offset="0.890625"/><stop stop-opacity="1" stop-color="rgb(10.20813%, 29.856873%, 100%)" offset="0.894531"/><stop stop-opacity="1" stop-color="rgb(9.773254%, 29.516602%, 100%)" offset="0.898438"/><stop stop-opacity="1" stop-color="rgb(9.336853%, 29.176331%, 100%)" offset="0.902344"/><stop stop-opacity="1" stop-color="rgb(8.901978%, 28.83606%, 100%)" offset="0.90625"/><stop stop-opacity="1" stop-color="rgb(8.750916%, 28.717041%, 100%)" offset="0.9375"/><stop stop-opacity="1" stop-color="rgb(8.599854%, 28.599548%, 100%)" offset="1"/></linearGradient></defs><g clip-path="url(#9f3cb50bb6)"><g clip-path="url(#22eb871050)"><path fill="url(#1f72cac52b)" d="M 15.003906 17.738281 L 15.003906 127.238281 L 113.171875 127.238281 L 113.171875 17.738281 Z M 15.003906 17.738281 " fill-rule="nonzero"/></g></g><g fill="#ffffff" fill-opacity="1"><g transform="translate(153.497379, 100.474073)"><g><path d="M 42.84375 -10.640625 L 20.34375 -10.640625 L 16.734375 0 L 1.375 0 L 23.171875 -60.265625 L 40.171875 -60.265625 L 61.984375 0 L 46.4375 0 Z M 39.0625 -21.96875 L 31.59375 -44.03125 L 24.203125 -21.96875 Z M 39.0625 -21.96875 "/></g></g></g><g fill="#ffffff" fill-opacity="1"><g transform="translate(216.753484, 100.474073)"><g><path d="M 52.625 -47.90625 L 52.625 0 L 37.9375 0 L 37.9375 -6.53125 C 36.457031 -4.40625 34.441406 -2.695312 31.890625 -1.40625 C 29.347656 -0.125 26.53125 0.515625 23.4375 0.515625 C 19.769531 0.515625 16.535156 -0.296875 13.734375 -1.921875 C 10.929688 -3.554688 8.753906 -5.921875 7.203125 -9.015625 C 5.660156 -12.109375 4.890625 -15.742188 4.890625 -19.921875 L 4.890625 -47.90625 L 19.484375 -47.90625 L 19.484375 -21.890625 C 19.484375 -18.679688 20.3125 -16.191406 21.96875 -14.421875 C 23.632812 -12.648438 25.867188 -11.765625 28.671875 -11.765625 C 31.535156 -11.765625 33.796875 -12.648438 35.453125 -14.421875 C 37.109375 -16.191406 37.9375 -18.679688 37.9375 -21.890625 L 37.9375 -47.90625 Z M 52.625 -47.90625 "/></g></g></g><g fill="#ffffff" fill-opacity="1"><g transform="translate(274.602352, 100.474073)"><g><path d="M 2.40625 -24.03125 C 2.40625 -28.957031 3.332031 -33.28125 5.1875 -37 C 7.050781 -40.71875 9.582031 -43.578125 12.78125 -45.578125 C 15.988281 -47.585938 19.566406 -48.59375 23.515625 -48.59375 C 26.671875 -48.59375 29.546875 -47.929688 32.140625 -46.609375 C 34.742188 -45.296875 36.789062 -43.523438 38.28125 -41.296875 L 38.28125 -63.53125 L 52.96875 -63.53125 L 52.96875 0 L 38.28125 0 L 38.28125 -6.875 C 36.90625 -4.582031 34.945312 -2.75 32.40625 -1.375 C 29.863281 0 26.898438 0.6875 23.515625 0.6875 C 19.566406 0.6875 15.988281 -0.328125 12.78125 -2.359375 C 9.582031 -4.390625 7.050781 -7.28125 5.1875 -11.03125 C 3.332031 -14.78125 2.40625 -19.113281 2.40625 -24.03125 Z M 38.28125 -23.953125 C 38.28125 -27.609375 37.265625 -30.492188 35.234375 -32.609375 C 33.203125 -34.734375 30.726562 -35.796875 27.8125 -35.796875 C 24.894531 -35.796875 22.421875 -34.75 20.390625 -32.65625 C 18.359375 -30.570312 17.34375 -27.695312 17.34375 -24.03125 C 17.34375 -20.375 18.359375 -17.472656 20.390625 -15.328125 C 22.421875 -13.179688 24.894531 -12.109375 27.8125 -12.109375 C 30.726562 -12.109375 33.203125 -13.164062 35.234375 -15.28125 C 37.265625 -17.394531 38.28125 -20.285156 38.28125 -23.953125 Z M 38.28125 -23.953125 "/></g></g></g><g fill="#ffffff" fill-opacity="1"><g transform="translate(332.880358, 100.474073)"><g><path d="M 12.703125 -52.875 C 10.128906 -52.875 8.023438 -53.628906 6.390625 -55.140625 C 4.765625 -56.660156 3.953125 -58.539062 3.953125 -60.78125 C 3.953125 -63.070312 4.765625 -64.972656 6.390625 -66.484375 C 8.023438 -68.003906 10.128906 -68.765625 12.703125 -68.765625 C 15.222656 -68.765625 17.296875 -68.003906 18.921875 -66.484375 C 20.554688 -64.972656 21.375 -63.070312 21.375 -60.78125 C 21.375 -58.539062 20.554688 -56.660156 18.921875 -55.140625 C 17.296875 -53.628906 15.222656 -52.875 12.703125 -52.875 Z M 20 -47.90625 L 20 0 L 5.328125 0 L 5.328125 -47.90625 Z M 20 -47.90625 "/></g></g></g><g fill="#ffffff" fill-opacity="1"><g transform="translate(358.199966, 100.474073)"><g><path d="M 32.015625 -12.453125 L 32.015625 0 L 24.546875 0 C 19.222656 0 15.070312 -1.300781 12.09375 -3.90625 C 9.125 -6.507812 7.640625 -10.757812 7.640625 -16.65625 L 7.640625 -35.71875 L 1.796875 -35.71875 L 1.796875 -47.90625 L 7.640625 -47.90625 L 7.640625 -59.578125 L 22.3125 -59.578125 L 22.3125 -47.90625 L 31.9375 -47.90625 L 31.9375 -35.71875 L 22.3125 -35.71875 L 22.3125 -16.484375 C 22.3125 -15.046875 22.65625 -14.015625 23.34375 -13.390625 C 24.03125 -12.765625 25.175781 -12.453125 26.78125 -12.453125 Z M 32.015625 -12.453125 "/></g></g></g><g fill="#ffffff" fill-opacity="1"><g transform="translate(393.046605, 100.474073)"><g><path d="M 2.40625 -24.03125 C 2.40625 -28.957031 3.332031 -33.28125 5.1875 -37 C 7.050781 -40.71875 9.582031 -43.578125 12.78125 -45.578125 C 15.988281 -47.585938 19.566406 -48.59375 23.515625 -48.59375 C 26.898438 -48.59375 29.863281 -47.90625 32.40625 -46.53125 C 34.945312 -45.15625 36.90625 -43.351562 38.28125 -41.125 L 38.28125 -47.90625 L 52.96875 -47.90625 L 52.96875 0 L 38.28125 0 L 38.28125 -6.78125 C 36.851562 -4.550781 34.863281 -2.75 32.3125 -1.375 C 29.769531 0 26.8125 0.6875 23.4375 0.6875 C 19.539062 0.6875 15.988281 -0.328125 12.78125 -2.359375 C 9.582031 -4.390625 7.050781 -7.28125 5.1875 -11.03125 C 3.332031 -14.78125 2.40625 -19.113281 2.40625 -24.03125 Z M 38.28125 -23.953125 C 38.28125 -27.609375 37.265625 -30.492188 35.234375 -32.609375 C 33.203125 -34.734375 30.726562 -35.796875 27.8125 -35.796875 C 24.894531 -35.796875 22.421875 -34.75 20.390625 -32.65625 C 18.359375 -30.570312 17.34375 -27.695312 17.34375 -24.03125 C 17.34375 -20.375 18.359375 -17.472656 20.390625 -15.328125 C 22.421875 -13.179688 24.894531 -12.109375 27.8125 -12.109375 C 30.726562 -12.109375 33.203125 -13.164062 35.234375 -15.28125 C 37.265625 -17.394531 38.28125 -20.285156 38.28125 -23.953125 Z M 38.28125 -23.953125 "/></g></g></g></svg>